# xmcd
#
# Track frame offsets:
#	150
#	16500
#	29100
#	46500
#	58725
#	75375
#	93000
#	110475
#	122925
#	137625
#	150375
#	165675
#	178875
#	201900
#	214650
#	230025
#	245250
#	263100
#
# Disc length: 3805 seconds
#
# Revision: 4
# Processed by: cddbd v1.5.2PL0 Copyright (c) Steve Scherf et al.
# Submitted via: audiograbber 1.83.01
#
DISCID=ea0edb12
DTITLE=Various Artist - DKG098
DYEAR=1900
DGENRE=Karaoke
TTITLE0=Judd, Wynnona - Tell Me Why
TTITLE1=Exciters - Tell Him
TTITLE2=Hootie And The Blowfish - Only Wanna Be With You
TTITLE3=Rascals - It's A Beautiful Morning
TTITLE4=Fine Young Cannibals - She Drives Me Crazy
TTITLE5=Cocker, Joe - The Letter
TTITLE6=Divinyls - I Touch Myself
TTITLE7=Guess Who - Laughing
TTITLE8=Trower, Robin - Bridge Of Sighs
TTITLE9=Herman's Hermits - I'm Into Something Good
TTITLE10=Foghat - I Just Want To Make Love To You
TTITLE11=Ross, Diana - The Last Time I Saw Him
TTITLE12=Queen - Somebody To Love
TTITLE13=Jones, Tom - With These Hands
TTITLE14=Temptations - All I Need
TTITLE15=Forester Sisters - Men
TTITLE16=America - You Can Do Magic
TTITLE17=Standard - The Nearness Of You
EXTD=
EXTT0=
EXTT1=
EXTT2=
EXTT3=
EXTT4=
EXTT5=
EXTT6=
EXTT7=
EXTT8=
EXTT9=
EXTT10=
EXTT11=
EXTT12=
EXTT13=
EXTT14=
EXTT15=
EXTT16=
EXTT17=
PLAYORDER=
